<svg xmlns="http://www.w3.org/2000/svg" width="512" height="512" viewBox="156 179 647 647">
<!-- Solid navy shield fill (outer contour only, no cutouts) -->
<g transform="translate(0,960) scale(0.1,-0.1)" fill="#0c2233" stroke="none">
<path d="M2196 7378 c-10 -57 -35 -347 -47 -523 -17 -250 -14 -811 5 -1051 51
-651 182 -1219 401 -1728 88 -207 184 -378 370 -661 524 -802 1135 -1372 1756
-1640 131 -57 107 -61 334 51 660 324 1278 954 1818 1854 337 563 543 1299
608 2175 15 203 15 789 0 1005 -14 202 -40 497 -47 528 l-4 22 -2595 0 -2594
0 -5 -32z"/>
</g>
<!-- Border ring (outer + inner subpaths create the ring shape) -->
<g transform="translate(0,960) scale(0.1,-0.1)" fill="#e8ecf2" stroke="none">
<path d="M2196 7378 c-10 -57 -35 -347 -47 -523 -17 -250 -14 -811 5 -1051 51
-651 182 -1219 401 -1728 88 -207 184 -378 370 -661 524 -802 1135 -1372 1756
-1640 131 -57 107 -61 334 51 660 324 1278 954 1818 1854 337 563 543 1299
608 2175 15 203 15 789 0 1005 -14 202 -40 497 -47 528 l-4 22 -2595 0 -2594
0 -5 -32z m5088 -135 c36 -224 57 -973 37 -1308 -52 -870 -258 -1628 -595
-2190 -273 -454 -558 -828 -871 -1141 -245 -245 -440 -401 -695 -554 -107 -65
-340 -180 -362 -180 -22 0 -207 87 -303 142 -570 327 -1078 851 -1546 1598
-188 300 -262 447 -365 730 -163 443 -252 865 -306 1445 -20 215 -17 965 5
1225 10 113 20 220 23 238 l6 32 2483 0 2483 0 6 -37z"/>
</g>
<line x1="384.1" y1="397.6" x2="574.9" y2="397.6" stroke="#22c55e" stroke-width="43" stroke-linecap="round"/>
<line x1="416.35" y1="473.4" x2="542.65" y2="473.4" stroke="#f59e0b" stroke-width="43" stroke-linecap="round"/>
<line x1="399.25" y1="549.3" x2="559.75" y2="549.3" stroke="#ef4444" stroke-width="43" stroke-linecap="round"/>
</svg>
