<svg xmlns="http://www.w3.org/2000/svg" width="1000" height="470" viewBox="0 0 1000 470" font-family="system-ui, -apple-system, 'Segoe UI', sans-serif">
  <rect width="1000" height="470" fill="#f9f9f7"/>
  <!-- header -->
  <text x="24" y="34" font-size="19" font-weight="700" fill="#0b0b0b">Firewall Live Log</text>
  <text x="176" y="34" font-size="12.5" fill="#898781">updated 12:04:31</text>
  <rect x="838" y="19" width="138" height="24" rx="12" fill="#fcfcfb" stroke="#e1e0d9"/>
  <circle cx="854" cy="31" r="4.5" fill="#fab219"/>
  <text x="866" y="35" font-size="12" fill="#52514e">5/6 receiving</text>
  <!-- tabs -->
  <g font-size="12.5" font-weight="600">
    <rect x="24" y="54" width="86" height="30" rx="8" fill="#fcfcfb" stroke="#e1e0d9"/>
    <text x="40" y="73" fill="#0b0b0b">Overview</text>
    <circle cx="130" cy="69" r="4.5" fill="#0ca30c"/><text x="142" y="73" fill="#52514e">UDM-HQ</text>
    <circle cx="222" cy="69" r="4.5" fill="#0ca30c"/><text x="234" y="73" fill="#52514e">Sophos-HQ</text>
    <circle cx="330" cy="69" r="4.5" fill="#0ca30c"/><text x="342" y="73" fill="#52514e">Sophos-Branch-1</text>
    <circle cx="470" cy="69" r="4.5" fill="#0ca30c"/><text x="482" y="73" fill="#52514e">Sophos-Branch-2</text>
    <circle cx="610" cy="69" r="4.5" fill="#d03b3b"/><text x="622" y="73" fill="#52514e">Sophos-DR</text>
  </g>
  <line x1="24" y1="84" x2="976" y2="84" stroke="#e1e0d9"/>
  <!-- KPI tiles -->
  <g>
    <!-- tile template repeated -->
    <g>
      <rect x="24" y="100" width="150" height="66" rx="12" fill="#fcfcfb" stroke="#e1e0d9"/>
      <text x="36" y="120" font-size="12" fill="#52514e">Systems receiving</text>
      <text x="36" y="144" font-size="22" font-weight="700" fill="#0b0b0b">5 / 6</text>
      <text x="36" y="159" font-size="11" fill="#898781">active in last 2 min</text>
    </g>
    <g>
      <rect x="184" y="100" width="150" height="66" rx="12" fill="#fcfcfb" stroke="#e1e0d9"/>
      <text x="196" y="120" font-size="12" fill="#52514e">Events / min</text>
      <text x="196" y="144" font-size="22" font-weight="700" fill="#0b0b0b">1,438</text>
      <text x="196" y="159" font-size="11" fill="#898781">across the fleet</text>
    </g>
    <g>
      <rect x="344" y="100" width="150" height="66" rx="12" fill="#fcfcfb" stroke="#e1e0d9"/>
      <text x="356" y="120" font-size="12" fill="#52514e">Events received</text>
      <text x="356" y="144" font-size="22" font-weight="700" fill="#0b0b0b">8,214,660</text>
      <text x="356" y="159" font-size="11" fill="#898781">11.9d span</text>
    </g>
    <g>
      <rect x="504" y="100" width="150" height="66" rx="12" fill="#fcfcfb" stroke="#e1e0d9"/>
      <text x="516" y="120" font-size="12" fill="#52514e">Retention</text>
      <text x="516" y="144" font-size="22" font-weight="700" fill="#0b0b0b">14 days</text>
      <text x="516" y="159" font-size="11" fill="#898781">time-based</text>
    </g>
    <g>
      <rect x="664" y="100" width="150" height="66" rx="12" fill="#fcfcfb" stroke="#e1e0d9"/>
      <text x="676" y="120" font-size="12" fill="#52514e">Dropped</text>
      <text x="676" y="144" font-size="22" font-weight="700" fill="#0b0b0b">0</text>
      <text x="676" y="159" font-size="11" fill="#898781">queue overflow</text>
    </g>
    <g>
      <rect x="824" y="100" width="152" height="66" rx="12" fill="#fcfcfb" stroke="#e1e0d9"/>
      <text x="836" y="120" font-size="12" fill="#52514e">Unparsed</text>
      <text x="836" y="144" font-size="22" font-weight="700" fill="#0b0b0b">3</text>
      <text x="836" y="159" font-size="11" fill="#898781">kept for diagnosis</text>
    </g>
  </g>
  <text x="24" y="200" font-size="14" font-weight="700" fill="#0b0b0b">Systems</text>
  <!-- system cards: 3 x 2 -->
  <g font-family="system-ui, -apple-system, 'Segoe UI', sans-serif">
    <!-- card 1 UDM-HQ -->
    <g>
      <rect x="24" y="214" width="306" height="112" rx="12" fill="#fcfcfb" stroke="#e1e0d9"/>
      <rect x="24" y="214" width="4" height="112" rx="2" fill="#0ca30c"/>
      <text x="42" y="238" font-size="15" font-weight="700" fill="#0b0b0b">UDM-HQ</text>
      <text x="42" y="256" font-size="12" fill="#898781">UniFi · udp/5514</text>
      <rect x="42" y="270" width="92" height="20" rx="10" fill="#fcfcfb" stroke="#e1e0d9"/>
      <circle cx="56" cy="280" r="4.5" fill="#0ca30c"/><text x="66" y="284" font-size="12" fill="#52514e">receiving</text>
      <text x="300" y="284" font-size="12" fill="#898781" text-anchor="end">3s ago</text>
      <text x="42" y="314" font-size="20" font-weight="700" fill="#0b0b0b">420</text>
      <text x="86" y="314" font-size="12" fill="#898781">/min</text>
      <text x="300" y="314" font-size="12" fill="#898781" text-anchor="end">1,982,340 total</text>
    </g>
    <!-- card 2 UDM-Warehouse -->
    <g>
      <rect x="346" y="214" width="306" height="112" rx="12" fill="#fcfcfb" stroke="#e1e0d9"/>
      <rect x="346" y="214" width="4" height="112" rx="2" fill="#0ca30c"/>
      <text x="364" y="238" font-size="15" font-weight="700" fill="#0b0b0b">UDM-Warehouse</text>
      <text x="364" y="256" font-size="12" fill="#898781">UniFi · udp/5515</text>
      <rect x="364" y="270" width="92" height="20" rx="10" fill="#fcfcfb" stroke="#e1e0d9"/>
      <circle cx="378" cy="280" r="4.5" fill="#0ca30c"/><text x="388" y="284" font-size="12" fill="#52514e">receiving</text>
      <text x="622" y="284" font-size="12" fill="#898781" text-anchor="end">1s ago</text>
      <text x="364" y="314" font-size="20" font-weight="700" fill="#0b0b0b">175</text>
      <text x="406" y="314" font-size="12" fill="#898781">/min</text>
      <text x="622" y="314" font-size="12" fill="#898781" text-anchor="end">804,110 total</text>
    </g>
    <!-- card 3 Sophos-HQ -->
    <g>
      <rect x="668" y="214" width="308" height="112" rx="12" fill="#fcfcfb" stroke="#e1e0d9"/>
      <rect x="668" y="214" width="4" height="112" rx="2" fill="#0ca30c"/>
      <text x="686" y="238" font-size="15" font-weight="700" fill="#0b0b0b">Sophos-HQ</text>
      <text x="686" y="256" font-size="12" fill="#898781">Sophos · udp/5516</text>
      <rect x="686" y="270" width="92" height="20" rx="10" fill="#fcfcfb" stroke="#e1e0d9"/>
      <circle cx="700" cy="280" r="4.5" fill="#0ca30c"/><text x="710" y="284" font-size="12" fill="#52514e">receiving</text>
      <text x="946" y="284" font-size="12" fill="#898781" text-anchor="end">2s ago</text>
      <text x="686" y="314" font-size="20" font-weight="700" fill="#0b0b0b">512</text>
      <text x="728" y="314" font-size="12" fill="#898781">/min</text>
      <text x="946" y="314" font-size="12" fill="#898781" text-anchor="end">3,401,220 total</text>
    </g>
    <!-- card 4 Sophos-Branch-1 -->
    <g>
      <rect x="24" y="338" width="306" height="112" rx="12" fill="#fcfcfb" stroke="#e1e0d9"/>
      <rect x="24" y="338" width="4" height="112" rx="2" fill="#0ca30c"/>
      <text x="42" y="362" font-size="15" font-weight="700" fill="#0b0b0b">Sophos-Branch-1</text>
      <text x="42" y="380" font-size="12" fill="#898781">Sophos · udp/5517</text>
      <rect x="42" y="394" width="92" height="20" rx="10" fill="#fcfcfb" stroke="#e1e0d9"/>
      <circle cx="56" cy="404" r="4.5" fill="#0ca30c"/><text x="66" y="408" font-size="12" fill="#52514e">receiving</text>
      <text x="300" y="408" font-size="12" fill="#898781" text-anchor="end">8s ago</text>
      <text x="42" y="438" font-size="20" font-weight="700" fill="#0b0b0b">88</text>
      <text x="76" y="438" font-size="12" fill="#898781">/min</text>
      <text x="300" y="438" font-size="12" fill="#898781" text-anchor="end">612,900 total</text>
    </g>
    <!-- card 5 Sophos-Branch-2 -->
    <g>
      <rect x="346" y="338" width="306" height="112" rx="12" fill="#fcfcfb" stroke="#e1e0d9"/>
      <rect x="346" y="338" width="4" height="112" rx="2" fill="#0ca30c"/>
      <text x="364" y="362" font-size="15" font-weight="700" fill="#0b0b0b">Sophos-Branch-2</text>
      <text x="364" y="380" font-size="12" fill="#898781">Sophos · udp/5518</text>
      <rect x="364" y="394" width="92" height="20" rx="10" fill="#fcfcfb" stroke="#e1e0d9"/>
      <circle cx="378" cy="404" r="4.5" fill="#0ca30c"/><text x="388" y="408" font-size="12" fill="#52514e">receiving</text>
      <text x="622" y="408" font-size="12" fill="#898781" text-anchor="end">11s ago</text>
      <text x="364" y="438" font-size="20" font-weight="700" fill="#0b0b0b">143</text>
      <text x="406" y="438" font-size="12" fill="#898781">/min</text>
      <text x="622" y="438" font-size="12" fill="#898781" text-anchor="end">1,120,540 total</text>
    </g>
    <!-- card 6 Sophos-DR (no data) -->
    <g>
      <rect x="668" y="338" width="308" height="112" rx="12" fill="#fcfcfb" stroke="#e1e0d9"/>
      <rect x="668" y="338" width="4" height="112" rx="2" fill="#d03b3b"/>
      <text x="686" y="362" font-size="15" font-weight="700" fill="#0b0b0b">Sophos-DR</text>
      <text x="686" y="380" font-size="12" fill="#898781">Sophos · udp/5519</text>
      <rect x="686" y="394" width="86" height="20" rx="10" fill="#fcfcfb" stroke="#e1e0d9"/>
      <circle cx="700" cy="404" r="4.5" fill="#d03b3b"/><text x="710" y="408" font-size="12" fill="#52514e">no data</text>
      <text x="946" y="408" font-size="12" fill="#898781" text-anchor="end">never</text>
      <text x="686" y="438" font-size="20" font-weight="700" fill="#0b0b0b">0</text>
      <text x="718" y="438" font-size="12" fill="#898781">/min</text>
      <text x="946" y="438" font-size="12" fill="#898781" text-anchor="end">0 total</text>
    </g>
  </g>
</svg>
