<svg xmlns="http://www.w3.org/2000/svg" width="1000" height="500" viewBox="0 0 1000 500" font-family="system-ui, -apple-system, 'Segoe UI', sans-serif">
  <rect width="1000" height="500" fill="#f9f9f7"/>
  <!-- header -->
  <text x="24" y="34" font-size="19" font-weight="700" fill="#0b0b0b">Firewall Live Log</text>
  <text x="176" y="34" font-size="12.5" fill="#898781">updated 12:04:31</text>
  <rect x="838" y="19" width="138" height="24" rx="12" fill="#fcfcfb" stroke="#e1e0d9"/>
  <circle cx="854" cy="31" r="4.5" fill="#fab219"/>
  <text x="866" y="35" font-size="12" fill="#52514e">5/6 receiving</text>
  <!-- tabs (UDM-HQ active) -->
  <g font-size="12.5" font-weight="600">
    <text x="40" y="73" fill="#52514e">Overview</text>
    <rect x="118" y="54" width="98" height="31" rx="8" fill="#fcfcfb" stroke="#e1e0d9"/>
    <circle cx="134" cy="69" r="4.5" fill="#0ca30c"/><text x="146" y="73" fill="#0b0b0b">UDM-HQ</text>
    <circle cx="240" cy="69" r="4.5" fill="#0ca30c"/><text x="252" y="73" fill="#52514e">Sophos-HQ</text>
    <circle cx="348" cy="69" r="4.5" fill="#0ca30c"/><text x="360" y="73" fill="#52514e">Sophos-Branch-1</text>
    <circle cx="488" cy="69" r="4.5" fill="#0ca30c"/><text x="500" y="73" fill="#52514e">Sophos-Branch-2</text>
    <circle cx="628" cy="69" r="4.5" fill="#d03b3b"/><text x="640" y="73" fill="#52514e">Sophos-DR</text>
  </g>
  <line x1="24" y1="85" x2="976" y2="85" stroke="#e1e0d9"/>
  <!-- system bar -->
  <g>
    <rect x="24" y="100" width="94" height="26" rx="8" fill="#fcfcfb" stroke="#e1e0d9"/>
    <text x="36" y="117" font-size="12.5" fill="#0b0b0b">← Overview</text>
    <text x="132" y="118" font-size="16" font-weight="700" fill="#0b0b0b">UDM-HQ</text>
    <rect x="214" y="102" width="92" height="22" rx="11" fill="#fcfcfb" stroke="#e1e0d9"/>
    <circle cx="228" cy="113" r="4.5" fill="#0ca30c"/><text x="238" y="117" font-size="12" fill="#52514e">receiving</text>
    <text x="318" y="117" font-size="12.5" fill="#898781">UniFi · udp/5514</text>
  </g>
  <!-- filters -->
  <g font-size="12">
    <rect x="24" y="138" width="88" height="28" rx="8" fill="#fcfcfb" stroke="#e1e0d9"/>
    <text x="36" y="156" fill="#0b0b0b">● Live</text>
    <rect x="120" y="138" width="150" height="28" rx="8" fill="#fcfcfb" stroke="#e1e0d9"/>
    <text x="132" y="156" fill="#898781">IP (src or dst)…</text>
    <rect x="278" y="138" width="60" height="28" rx="8" fill="#fcfcfb" stroke="#e1e0d9"/>
    <text x="290" y="156" fill="#898781">port</text>
    <rect x="346" y="138" width="110" height="28" rx="8" fill="#fcfcfb" stroke="#e1e0d9"/>
    <text x="358" y="156" fill="#0b0b0b">action: all</text>
    <text x="470" y="156" fill="#52514e">☐ pause</text>
    <rect x="534" y="138" width="56" height="28" rx="8" fill="#fcfcfb" stroke="#e1e0d9"/>
    <text x="546" y="156" fill="#0b0b0b">Clear</text>
    <rect x="598" y="138" width="112" height="28" rx="8" fill="#fcfcfb" stroke="#e1e0d9"/>
    <text x="610" y="156" fill="#0b0b0b">Download CSV</text>
    <text x="836" y="156" fill="#898781" text-anchor="end">120 shown / 600 loaded</text>
  </g>
  <!-- table card -->
  <rect x="24" y="176" width="952" height="304" rx="12" fill="#fcfcfb" stroke="#e1e0d9"/>
  <!-- table header -->
  <g font-size="12" fill="#52514e" font-weight="600">
    <text x="40" y="199">Time</text>
    <text x="130" y="199">Source IP</text>
    <text x="290" y="199">Destination IP</text>
    <text x="470" y="199">Proto</text>
    <text x="556" y="199">Port</text>
    <text x="636" y="199">Action</text>
    <text x="742" y="199">Rule</text>
  </g>
  <line x1="24" y1="210" x2="976" y2="210" stroke="#e1e0d9"/>
  <!-- rows -->
  <g font-size="12.5" font-family="ui-monospace, 'Cascadia Mono', Menlo, monospace">
    <!-- row bg tints -->
    <rect x="25" y="211" width="950" height="23" fill="#eef7ee"/>
    <rect x="25" y="234" width="950" height="23" fill="#eef7ee"/>
    <rect x="25" y="257" width="950" height="23" fill="#fbeeee"/>
    <rect x="25" y="280" width="950" height="23" fill="#eef7ee"/>
    <rect x="25" y="303" width="950" height="23" fill="#fbeeee"/>
    <rect x="25" y="326" width="950" height="23" fill="#eef7ee"/>
    <rect x="25" y="349" width="950" height="23" fill="#eef7ee"/>
    <rect x="25" y="372" width="950" height="23" fill="#fbeeee"/>
    <rect x="25" y="395" width="950" height="23" fill="#eef7ee"/>
    <rect x="25" y="418" width="950" height="23" fill="#eef7ee"/>
    <rect x="25" y="441" width="950" height="23" fill="#fbeeee"/>
  </g>
  <g font-size="12.5" font-family="ui-monospace, 'Cascadia Mono', Menlo, monospace" fill="#0b0b0b">
    <!-- each row: time, src, dst, proto, port, action(dot+label), rule -->
    <g><text x="40" y="227">12:04:31</text><text x="130" y="227">10.30.0.15</text><text x="290" y="227">93.184.216.34</text><text x="470" y="227">TCP</text><text x="556" y="227">443</text><circle cx="640" cy="223" r="4" fill="#0ca30c"/><text x="650" y="227">Allow</text><text x="742" y="227" font-family="system-ui">Allow LAN web</text></g>
    <g><text x="40" y="250">12:04:31</text><text x="130" y="250">10.30.0.20</text><text x="290" y="250">10.30.20.5</text><text x="470" y="250">UDP</text><text x="556" y="250">53</text><circle cx="640" cy="246" r="4" fill="#0ca30c"/><text x="650" y="250">Allow</text><text x="742" y="250" font-family="system-ui">Allow DNS</text></g>
    <g><text x="40" y="273">12:04:30</text><text x="130" y="273">10.31.0.77</text><text x="290" y="273">10.30.20.5</text><text x="470" y="273">TCP</text><text x="556" y="273">445</text><circle cx="640" cy="269" r="4" fill="#d03b3b"/><text x="650" y="273">Drop</text><text x="742" y="273" font-family="system-ui">Guest isolation</text></g>
    <g><text x="40" y="296">12:04:30</text><text x="130" y="296">10.30.0.15</text><text x="290" y="296">10.30.20.5</text><text x="470" y="296">ICMP</text><text x="556" y="296">—</text><circle cx="640" cy="292" r="4" fill="#0ca30c"/><text x="650" y="296">Allow</text><text x="742" y="296" font-family="system-ui">Allow ping</text></g>
    <g><text x="40" y="319">12:04:29</text><text x="130" y="319">45.83.12.9</text><text x="290" y="319">10.30.60.9</text><text x="470" y="319">TCP</text><text x="556" y="319">3389</text><circle cx="640" cy="315" r="4" fill="#d03b3b"/><text x="650" y="319">Drop</text><text x="742" y="319" font-family="system-ui">Drop WAN to DMZ</text></g>
    <g><text x="40" y="342">12:04:29</text><text x="130" y="342">10.30.0.41</text><text x="290" y="342">10.30.20.7</text><text x="470" y="342">TCP</text><text x="556" y="342">443</text><circle cx="640" cy="338" r="4" fill="#0ca30c"/><text x="650" y="342">Allow</text><text x="742" y="342" font-family="system-ui">Allow LAN web</text></g>
    <g><text x="40" y="365">12:04:28</text><text x="130" y="365">10.30.0.15</text><text x="290" y="365">10.30.0.1</text><text x="470" y="365">UDP</text><text x="556" y="365">123</text><circle cx="640" cy="361" r="4" fill="#0ca30c"/><text x="650" y="365">Allow</text><text x="742" y="365" font-family="system-ui">Allow NTP</text></g>
    <g><text x="40" y="388">12:04:28</text><text x="130" y="388">10.31.0.44</text><text x="290" y="388">10.30.20.5</text><text x="470" y="388">TCP</text><text x="556" y="388">22</text><circle cx="640" cy="384" r="4" fill="#d03b3b"/><text x="650" y="388">Drop</text><text x="742" y="388" font-family="system-ui">Guest isolation</text></g>
    <g><text x="40" y="411">12:04:27</text><text x="130" y="411">10.30.0.88</text><text x="290" y="411">140.82.121.4</text><text x="470" y="411">TCP</text><text x="556" y="411">443</text><circle cx="640" cy="407" r="4" fill="#0ca30c"/><text x="650" y="411">Allow</text><text x="742" y="411" font-family="system-ui">Allow LAN web</text></g>
    <g><text x="40" y="434">12:04:27</text><text x="130" y="434">10.30.0.20</text><text x="290" y="434">10.30.20.5</text><text x="470" y="434">UDP</text><text x="556" y="434">53</text><circle cx="640" cy="430" r="4" fill="#0ca30c"/><text x="650" y="434">Allow</text><text x="742" y="434" font-family="system-ui">Allow DNS</text></g>
    <g><text x="40" y="457">12:04:26</text><text x="130" y="457">193.5.7.2</text><text x="290" y="457">10.30.60.9</text><text x="470" y="457">TCP</text><text x="556" y="457">23</text><circle cx="640" cy="453" r="4" fill="#d03b3b"/><text x="650" y="457">Drop</text><text x="742" y="457" font-family="system-ui">Drop WAN to DMZ</text></g>
  </g>
</svg>
